<svg xmlns="http://www.w3.org/2000/svg" viewBox="0 0 256 256" width="256" height="256" role="img" aria-label="Aurevon">
  <defs>
    <linearGradient id="frame" x1="0%" y1="0%" x2="100%" y2="100%">
      <stop offset="0%"   stop-color="#f4d27a"/>
      <stop offset="30%"  stop-color="#c9a857"/>
      <stop offset="55%"  stop-color="#8a6f2e"/>
      <stop offset="80%"  stop-color="#c9a857"/>
      <stop offset="100%" stop-color="#f4d27a"/>
    </linearGradient>
    <linearGradient id="bg" x1="50%" y1="0%" x2="50%" y2="100%">
      <stop offset="0%"   stop-color="#0e1830"/>
      <stop offset="55%"  stop-color="#070b18"/>
      <stop offset="100%" stop-color="#03060c"/>
    </linearGradient>
    <radialGradient id="bgVignette" cx="50%" cy="42%" r="60%">
      <stop offset="0%"   stop-color="rgba(80,110,170,0.32)"/>
      <stop offset="100%" stop-color="rgba(80,110,170,0)"/>
    </radialGradient>
    <linearGradient id="chrome" x1="50%" y1="0%" x2="50%" y2="100%">
      <stop offset="0%"   stop-color="#ffffff"/>
      <stop offset="22%"  stop-color="#e2e6ee"/>
      <stop offset="46%"  stop-color="#8e95a4"/>
      <stop offset="58%"  stop-color="#5b6376"/>
      <stop offset="74%"  stop-color="#a8aebb"/>
      <stop offset="100%" stop-color="#f4f6fa"/>
    </linearGradient>
    <linearGradient id="chromeBevel" x1="0%" y1="0%" x2="100%" y2="100%">
      <stop offset="0%"   stop-color="rgba(255,255,255,0.55)"/>
      <stop offset="50%"  stop-color="rgba(255,255,255,0)"/>
      <stop offset="100%" stop-color="rgba(0,0,0,0.45)"/>
    </linearGradient>
    <filter id="softGlow" x="-20%" y="-20%" width="140%" height="140%">
      <feGaussianBlur stdDeviation="2" result="blur"/>
      <feMerge>
        <feMergeNode in="blur"/>
        <feMergeNode in="SourceGraphic"/>
      </feMerge>
    </filter>
  </defs>

  <rect x="0" y="0" width="256" height="256" rx="44" fill="url(#frame)"/>
  <rect x="5" y="5" width="246" height="246" rx="40" fill="url(#bg)"/>
  <rect x="5" y="5" width="246" height="246" rx="40" fill="url(#bgVignette)"/>

  <g transform="translate(128 128) scale(5.2) translate(-20 -20)" filter="url(#softGlow)">
    <path fill-rule="evenodd" fill="url(#chrome)"
          d="M14 5L21 4L31 36L27 36L23 23L16 27L13 36L8.5 36Z M19 7L23 23L16 27Z"/>
    <path fill-rule="evenodd" fill="url(#chromeBevel)" opacity="0.7"
          d="M14 5L21 4L31 36L27 36L23 23L16 27L13 36L8.5 36Z M19 7L23 23L16 27Z"/>
  </g>
</svg>
