<svg xmlns="http://www.w3.org/2000/svg" viewBox="0 0 414 736" preserveAspectRatio="xMidYMid slice">
<defs>
  <linearGradient id="velvet" x1="0" y1="0" x2="0" y2="1">
    <stop offset="0%" stop-color="#0a1428"/>
    <stop offset="50%" stop-color="#0d1a3a"/>
    <stop offset="100%" stop-color="#070d1f"/>
  </linearGradient>
  <radialGradient id="velvetLight" cx="50%" cy="35%" r="60%">
    <stop offset="0%" stop-color="rgba(40,60,120,0.4)"/>
    <stop offset="100%" stop-color="transparent"/>
  </radialGradient>
  <linearGradient id="obsidian" x1="0.2" y1="0.1" x2="0.8" y2="1">
    <stop offset="0%" stop-color="#1a1a1c"/>
    <stop offset="40%" stop-color="#08080a"/>
    <stop offset="60%" stop-color="#0c0c10"/>
    <stop offset="100%" stop-color="#020204"/>
  </linearGradient>
  <linearGradient id="goldEdge" x1="0" y1="0" x2="1" y2="1">
    <stop offset="0%" stop-color="#f5d27a"/>
    <stop offset="50%" stop-color="#c69b3c"/>
    <stop offset="100%" stop-color="#7a5d20"/>
  </linearGradient>
  <linearGradient id="goldEmblem" x1="0" y1="0" x2="0" y2="1">
    <stop offset="0%" stop-color="#fde07a"/>
    <stop offset="50%" stop-color="#d4a02e"/>
    <stop offset="100%" stop-color="#7d5b14"/>
  </linearGradient>
</defs>
<rect width="414" height="736" fill="url(#velvet)"/>
<rect width="414" height="736" fill="url(#velvetLight)"/>
<g opacity="0.06" fill="#fff">
  <circle cx="80" cy="120" r="1"/><circle cx="180" cy="60" r="0.8"/><circle cx="320" cy="180" r="1"/>
  <circle cx="60" cy="500" r="0.7"/><circle cx="370" cy="600" r="1.2"/><circle cx="200" cy="700" r="0.9"/>
</g>
<g transform="translate(207 368) rotate(-3) translate(-150 -210)">
  <rect x="6" y="14" width="300" height="420" rx="22" fill="rgba(0,0,0,0.6)"/>
  <rect x="0" y="0" width="300" height="420" rx="22" fill="url(#goldEdge)"/>
  <rect x="6" y="6" width="288" height="408" rx="18" fill="url(#obsidian)"/>
  <rect x="14" y="14" width="272" height="392" rx="14" fill="none" stroke="url(#goldEdge)" stroke-width="1" opacity="0.55"/>
  <circle cx="22" cy="22" r="2" fill="url(#goldEmblem)"/>
  <circle cx="278" cy="22" r="2" fill="url(#goldEmblem)"/>
  <circle cx="22" cy="398" r="2" fill="url(#goldEmblem)"/>
  <circle cx="278" cy="398" r="2" fill="url(#goldEmblem)"/>
  <g transform="translate(150 150)">
    <rect x="-60" y="-60" width="120" height="120" rx="14" fill="url(#goldEmblem)"/>
    <rect x="-58" y="-58" width="116" height="116" rx="12" fill="none" stroke="rgba(0,0,0,0.3)" stroke-width="1"/>
    <path d="M -36 -36 L -12 -36 L -12 8 L 24 8 L 24 36 L -36 36 Z" fill="#0c0c0e" opacity="0.92"/>
    <rect x="6" y="-36" width="30" height="22" rx="4" fill="#0c0c0e" opacity="0.7"/>
    <circle cx="12" cy="-26" r="2" fill="url(#goldEmblem)"/>
    <circle cx="22" cy="-26" r="2" fill="url(#goldEmblem)"/>
    <circle cx="32" cy="-26" r="2" fill="url(#goldEmblem)"/>
    <circle cx="12" cy="-19" r="2" fill="url(#goldEmblem)"/>
    <circle cx="22" cy="-19" r="2" fill="url(#goldEmblem)"/>
    <circle cx="32" cy="-19" r="2" fill="url(#goldEmblem)"/>
  </g>
  <text x="150" y="300" text-anchor="middle" font-family="Georgia, serif" font-weight="700" font-size="22" fill="url(#goldEmblem)" letter-spacing="1.5">BLOCKT</text>
  <text x="150" y="328" text-anchor="middle" font-family="Georgia, serif" font-weight="700" font-size="22" fill="url(#goldEmblem)" letter-spacing="1.5">OBSIDIAN</text>
  <text x="150" y="356" text-anchor="middle" font-family="Georgia, serif" font-weight="700" font-size="22" fill="url(#goldEmblem)" letter-spacing="1.5">EXECUTIVE</text>
</g>
</svg>